# xmcd
#
# Track frame offsets:
# 150
# 2380
# 24548
# 50250
# 80814
# 110878
# 135420
# 166398
# 204847
# 233581
# 261571
# 294380
# 317861
#
# Disc length: 4620 seconds
#
# Revision: 0
# Processed by: cddbd v1.5.2PL0 Copyright (c) Steve Scherf et al.
# Submitted via: Audion 3.0.2 (http://www.panic.com/audion/)
#
DISCID=ad120a0d
DTITLE=Makossa and Megablast - Kunuaka
DYEAR=1900
DGENRE=
TTITLE0=Intro By Ras T-Weed
TTITLE1=Mama (Featuring 3gga)
TTITLE2=Kunuaka (Featuring Subrinah)
TTITLE3=Like a Rocket (Featuring Capitol A)
TTITLE4=Galaxy 82
TTITLE5=Porque (Featuring Cleydys Hevia-Villalon)
TTITLE6=The Mating Game (Makossa and Megablast Remake)
TTITLE7=Rip It Up (Featuring Ras T-Weed)
TTITLE8=Que Pasa (Featuring Cleydys Hevia-Villalon)
TTITLE9=Find It (Remake) [Featuring Farda P.]
TTITLE10=Mangia Amore (Makossa and Megablast Remake)
TTITLE11=Get It On (Featuring Kool Keith)
TTITLE12=Slow Mo
EXTD=
EXTT0=
EXTT1=
EXTT2=
EXTT3=
EXTT4=
EXTT5=
EXTT6=
EXTT7=
EXTT8=
EXTT9=
EXTT10=
EXTT11=
EXTT12=
PLAYORDER=
